<?xml version="1.0" standalone="no"?><!DOCTYPE svg PUBLIC "-//W3C//DTD SVG 1.1//EN" "http://www.w3.org/Graphics/SVG/1.1/DTD/svg11.dtd"><svg class="icon" width="200px" height="150.04px" viewBox="0 0 1365 1024" version="1.1" xmlns="http://www.w3.org/2000/svg"><path fill="#000000" d="M1182.412741 0.033752H182.790642A179.339615 179.339615 0 0 0 0 175.770647v672.495113A179.301692 179.301692 0 0 0 182.790642 1023.964731h999.622099a179.339615 179.339615 0 0 0 182.790642-175.698971V175.732723a179.377538 179.377538 0 0 0-182.790642-175.736895zM1289.394567 848.227836a105.085657 105.085657 0 0 1-106.943903 102.810256H182.790642A105.085657 105.085657 0 0 1 75.846739 848.227836V175.732723a93.6328 93.6328 0 0 1 1.441088-13.500719l608.139155 458.872772 515.757827-394.744354-47.252519-56.885055-468.694925 358.830923L114.452729 97.648505a108.460837 108.460837 0 0 1 68.489606-24.53642h999.6221a105.047734 105.047734 0 0 1 106.943902 102.810255v672.495113z" /></svg>